<svg width="78" height="78" viewBox="0 0 78 78" fill="none" xmlns="http://www.w3.org/2000/svg">
<path d="M76.8339 48.4345C71.6243 69.3275 50.4596 82.0415 29.5618 76.8326C8.67369 71.6236 -4.04296 50.4613 1.16778 29.5695C6.37487 8.67399 27.5384 -4.04245 48.4301 1.16649C69.3267 6.37543 82.0422 27.5402 76.8326 48.4345H76.8339Z" fill="#F7931A"/>
<path d="M56.1955 33.4444C56.9706 28.255 53.0194 25.4653 47.6167 23.6042L49.3693 16.5745L45.089 15.5081L43.3828 22.3526C42.2591 22.0723 41.1037 21.8078 39.9556 21.5458L41.6741 14.6562L37.3975 13.5898L35.6437 20.6171C34.7126 20.405 33.7985 20.1954 32.9113 19.9748L32.9161 19.9528L27.015 18.4794L25.8766 23.0497C25.8766 23.0497 29.0515 23.7773 28.9845 23.8224C30.7175 24.255 31.032 25.4019 30.9783 26.3111L28.982 34.3195C29.1015 34.3499 29.2562 34.3938 29.4269 34.4621L28.9759 34.3499L26.1765 45.5685C25.9644 46.095 25.4269 46.8848 24.2155 46.585C24.2581 46.6471 21.1052 45.8086 21.1052 45.8086L18.981 50.708L24.5506 52.0961C25.5866 52.3557 26.6018 52.6275 27.6 52.8835L25.8291 59.9949L30.1033 61.0613L31.8583 54.0266C33.0246 54.3435 34.1581 54.636 35.2671 54.9115L33.5194 61.9132L37.7985 62.9796L39.5693 55.8828C46.866 57.2637 52.354 56.7067 54.6611 50.1084C56.5221 44.7946 54.5697 41.7295 50.7306 39.7295C53.5264 39.0823 55.6324 37.2432 56.1943 33.4444H56.1955ZM46.4175 47.1541C45.0939 52.4679 36.1483 49.5965 33.2464 48.875L35.5962 39.4553C38.4968 40.1792 47.7971 41.6125 46.4187 47.1541H46.4175ZM47.7398 33.3676C46.5332 38.2012 39.0867 35.7454 36.6699 35.1433L38.8003 26.5999C41.2171 27.202 48.9976 28.3257 47.7398 33.3676Z" fill="white"/>
</svg>
