<svg width="13" height="13" viewBox="0 0 13 13" fill="none" xmlns="http://www.w3.org/2000/svg">
<mask id="mask0_1_5" style="mask-type:alpha" maskUnits="userSpaceOnUse" x="0" y="0" width="13" height="13">
<rect x="0.5" y="0.5" width="12" height="12" fill="#D9D9D9"/>
</mask>
<g mask="url(#mask0_1_5)">
<path d="M5 9.5C4.725 9.5 4.48958 9.40208 4.29375 9.20625C4.09792 9.01042 4 8.775 4 8.5V2.5C4 2.225 4.09792 1.98958 4.29375 1.79375C4.48958 1.59792 4.725 1.5 5 1.5H9.5C9.775 1.5 10.0104 1.59792 10.2063 1.79375C10.4021 1.98958 10.5 2.225 10.5 2.5V8.5C10.5 8.775 10.4021 9.01042 10.2063 9.20625C10.0104 9.40208 9.775 9.5 9.5 9.5H5ZM3 11.5C2.725 11.5 2.48958 11.4021 2.29375 11.2063C2.09792 11.0104 2 10.775 2 10.5V3.5H3V10.5H8.5V11.5H3Z" fill="#F1E84D"/>
</g>
</svg>
