<svg width="20" height="21" viewBox="0 0 20 21" fill="none" xmlns="http://www.w3.org/2000/svg">
<path d="M20 19H12V17H20V19ZM6 2V0H12V2H6ZM9 21C7.75 21 6.57917 20.7625 5.4875 20.2875C4.39583 19.8125 3.44583 19.1708 2.6375 18.3625C1.82917 17.5542 1.1875 16.6042 0.7125 15.5125C0.2375 14.4208 0 13.25 0 12C0 10.75 0.2375 9.57917 0.7125 8.4875C1.1875 7.39583 1.82917 6.44583 2.6375 5.6375C3.44583 4.82917 4.39583 4.1875 5.4875 3.7125C6.57917 3.2375 7.75 3 9 3C10.0667 3 11.075 3.175 12.025 3.525C12.975 3.875 13.8417 4.35833 14.625 4.975L16.05 3.55L17.45 4.95L16.05 6.4C16.7 7.21667 17.1958 8.125 17.5375 9.125C17.8792 10.125 18.0333 11.1917 18 12.325C17.7667 12.2583 17.5083 12.1833 17.225 12.1C16.9417 12.0167 16.5333 11.975 16 11.975C16 11.8083 15.9958 11.6458 15.9875 11.4875C15.9792 11.3292 15.9583 11.1667 15.925 11H11.9L7.4 18.825C7.66667 18.8917 7.92917 18.9375 8.1875 18.9625C8.44583 18.9875 8.71667 19 9 19C9.18333 19 9.35833 18.9958 9.525 18.9875C9.69167 18.9792 9.86667 18.9583 10.05 18.925C10.1 19.2583 10.1792 19.5917 10.2875 19.925C10.3958 20.2583 10.5333 20.5667 10.7 20.85C10.4167 20.9 10.1333 20.9375 9.85 20.9625C9.56667 20.9875 9.28333 21 9 21ZM9 10H15.7C15.4 8.96667 14.8875 8.05833 14.1625 7.275C13.4375 6.49167 12.5833 5.9 11.6 5.5L9 10ZM7.25 11L10.6 5.2C10.3333 5.13333 10.0625 5.08333 9.7875 5.05C9.5125 5.01667 9.23333 5 8.95 5C8.2 5 7.45833 5.12083 6.725 5.3625C5.99167 5.60417 5.3 5.98333 4.65 6.5L7.25 11ZM2.1 13H7.25L3.9 7.2C3.2 7.98333 2.67917 8.87083 2.3375 9.8625C1.99583 10.8542 1.91667 11.9 2.1 13ZM6.4 18.5L9 14H2.3C2.6 15.0333 3.1125 15.9417 3.8375 16.725C4.5625 17.5083 5.41667 18.1 6.4 18.5Z" fill="#F1E84D"/>
</svg>
