<svg width="182" height="61" viewBox="0 0 182 61" fill="none" xmlns="http://www.w3.org/2000/svg">
    <path
        d="M4.32705 57.6441C4.32705 57.6441 15.881 57.6441 16.183 57.3672C16.183 57.3672 23.3067 51.4266 27.9131 49.136C27.9131 49.136 31.3617 34.637 27.9131 33.8818C19.4805 32.0191 3.62224 57.342 4.32705 57.6441Z"
        fill="#221F20" />
    <path
        d="M5.76209 43.3966L13.1878 35.4171C13.7416 34.8381 13.515 33.8061 12.8102 33.5292L1.38217 28.7214C0.576665 28.4193 -0.203661 29.2248 0.048058 30.131L4.02522 42.9183C4.25177 43.7238 5.20831 44.0007 5.76209 43.3966Z"
        fill="#221F20" />
    <path
        d="M17.0892 31.8931L24.2884 28.6208C25.0184 28.2935 25.1946 27.4125 24.666 26.8587L16.0824 15.5062C15.2517 14.6252 13.691 15.3803 13.9679 16.5131L15.3272 31.1379C15.5034 31.8428 16.3593 32.2203 17.0641 31.8931H17.0892Z"
        fill="#221F20" />
    <path
        d="M49.5873 57.6441C49.5873 57.6441 38.0334 57.6441 37.7313 57.3672C37.7313 57.3672 30.6077 51.4266 26.0012 49.136C26.0012 49.136 22.5526 34.637 26.0012 33.8818C34.4338 32.0191 50.2921 57.342 49.5873 57.6441Z"
        fill="#221F20" />
    <path
        d="M48.1269 43.3966L40.7012 35.4171C40.1474 34.8381 40.374 33.8061 41.0788 33.5292L52.5069 28.7214C53.3124 28.4193 54.0927 29.2248 53.841 30.131L49.8638 42.9183C49.6373 43.7238 48.6807 44.0007 48.1269 43.3966Z"
        fill="#221F20" />
    <path
        d="M36.8244 31.8931L29.6252 28.6208C28.8952 28.2935 28.719 27.4125 29.2476 26.8587L37.8312 15.5062C38.6619 14.6252 40.2226 15.3803 39.9457 16.5131L38.5864 31.1379C38.4102 31.8428 37.5543 32.2203 36.8495 31.8931H36.8244Z"
        fill="#221F20" />
    <path
        d="M74.0034 42.314C74.5823 54.8497 85.8342 52.257 86.2369 52.1059C86.6145 51.9801 87.2186 51.9045 88.0493 51.9045C88.3262 51.8039 90.3399 55.8565 90.4658 56.0579C90.5917 56.2593 90.6672 56.511 90.6672 56.8382C90.5665 56.8886 90.4155 56.9893 90.2644 57.1151C90.0882 57.241 60.9895 69.1473 63.6577 38.9158C65.4449 18.6776 88.4017 29.3505 88.4017 29.3505C88.4521 29.3505 87.999 35.0897 87.8228 35.2659C87.7724 35.3163 87.7221 35.3414 87.6466 35.3414C87.3697 35.3414 73.4999 30.7601 74.0286 42.314H74.0034Z"
        fill="#231F21" />
    <path
        d="M97.7157 0H103.53C104.512 7.29985 104.814 29.8539 105.091 30.6846C105.368 30.4077 109.068 26.9088 115.109 27.4877C134.844 29.4008 128.249 57.5933 128.325 57.5933C126.965 57.5933 121.453 57.8954 119.867 58.1723C119.766 57.845 122.862 29.4008 110.931 34.1079C104.235 36.751 105.67 59.1792 105.67 59.1792C104.311 59.1792 97.9926 60.4629 97.7157 60.4126C96.4319 53.5155 97.7157 1.18309 97.7157 0.0503546V0Z"
        fill="#231F21" />
    <path
        d="M134.139 28.2932C134.793 28.2428 144.283 28.2428 144.56 28.2932C144.51 28.5701 141.791 52.9113 150.954 52.8106C160.116 52.7099 158.505 28.9476 158.505 28.7714C158.505 28.7714 166.787 28.7211 167.29 28.7714C167.341 29.0483 167.038 58.1471 167.038 58.9526C165.73 59.2295 160.72 59.3301 159.411 59.456C159.26 59.2295 158.883 55.7809 158.832 55.6802C158.732 55.6802 156.567 58.7008 150.803 58.8267C149.494 58.8519 148.109 58.9526 146.7 58.9526C128.651 58.9526 134.139 28.5449 134.139 28.268V28.2932Z"
        fill="#231F21" />
    <path
        d="M180.632 58.7765C180.078 58.8771 174.44 59.2799 174.238 59.2799C174.238 58.9526 174.037 31.7922 174.163 31.1377C174.591 31.037 180.783 30.8105 181.06 30.8105C181.161 30.8105 180.808 58.6254 180.657 58.7765H180.632ZM174.062 25.5747C174.012 25.2978 173.987 24.8951 174.012 24.3413C174.037 23.7875 174.062 23.2085 174.062 22.6296C174.062 22.3527 174.062 22.101 174.012 21.8996C173.962 21.6982 173.962 21.4717 173.962 21.2451C173.962 21.1444 173.962 21.0438 174.012 20.9934C174.062 20.9431 174.062 20.8676 174.062 20.7417H179.978C180.255 20.7417 180.406 20.7417 180.481 20.792C180.531 20.8172 180.557 20.9682 180.557 21.2451V26.5816C180.229 26.6319 179.726 26.6571 179.046 26.6571H176.957C176.252 26.6571 175.598 26.6571 175.019 26.6067C174.44 26.5816 174.163 26.5061 174.163 26.4054C174.113 26.2292 174.087 25.9775 174.087 25.5747H174.062Z"
        fill="#231F21" />
</svg>