<svg width="128" height="43" viewBox="0 0 128 43" fill="none" xmlns="http://www.w3.org/2000/svg">
<path d="M3.47433 40.4692C3.47433 40.4692 11.5858 40.4692 11.7979 40.2748C11.7979 40.2748 16.7991 36.1042 20.0331 34.496C20.0331 34.496 22.4541 24.3169 20.0331 23.7868C14.1129 22.479 2.97951 40.2571 3.47433 40.4692Z" fill="#F1E84D"/>
<path d="M4.48183 30.4668L9.6951 24.8647C10.0839 24.4583 9.92483 23.7337 9.43001 23.5393L1.40688 20.164C0.841374 19.9519 0.293542 20.5174 0.470263 21.1536L3.26246 30.131C3.4215 30.6965 4.09305 30.8909 4.48183 30.4668Z" fill="#F1E84D"/>
<path d="M12.4341 22.3906L17.4883 20.0932C18.0008 19.8635 18.1245 19.245 17.7534 18.8562L11.7272 10.8861C11.1441 10.2676 10.0484 10.7977 10.2428 11.593L11.1971 21.8605C11.3208 22.3553 11.9216 22.6204 12.4165 22.3906H12.4341Z" fill="#F1E84D"/>
<path d="M35.2496 40.4692C35.2496 40.4692 27.1381 40.4692 26.926 40.2748C26.926 40.2748 21.9248 36.1042 18.6908 34.496C18.6908 34.496 16.2698 24.3169 18.6908 23.7868C24.611 22.479 35.7444 40.2571 35.2496 40.4692Z" fill="#F1E84D"/>
<path d="M34.2243 30.4668L29.0111 24.8647C28.6223 24.4583 28.7813 23.7337 29.2761 23.5393L37.2993 20.164C37.8648 19.9519 38.4126 20.5174 38.2359 21.1536L35.4437 30.131C35.2847 30.6965 34.6131 30.8909 34.2243 30.4668Z" fill="#F1E84D"/>
<path d="M26.2893 22.3906L21.235 20.0932C20.7226 19.8635 20.5988 19.245 20.97 18.8562L26.9961 10.8861C27.5793 10.2676 28.675 10.7977 28.4806 11.593L27.5263 21.8605C27.4026 22.3553 26.8018 22.6204 26.3069 22.3906H26.2893Z" fill="#F1E84D"/>
<path d="M52.3912 29.7069C52.7976 38.5076 60.6971 36.6873 60.9798 36.5813C61.2449 36.493 61.669 36.4399 62.2522 36.4399C62.4466 36.3692 63.8604 39.2145 63.9487 39.3558C64.0371 39.4972 64.0901 39.6739 64.0901 39.9037C64.0194 39.939 63.9134 40.0097 63.8074 40.0981C63.6837 40.1864 43.2547 48.5453 45.128 27.3211C46.3827 13.1128 62.4996 20.6057 62.4996 20.6057C62.535 20.6057 62.2169 24.635 62.0932 24.7587C62.0578 24.794 62.0225 24.8117 61.9695 24.8117C61.7751 24.8117 52.0377 21.5954 52.4089 29.7069H52.3912Z" fill="#F1E84D"/>
<path d="M69.0386 0H73.1208C73.81 5.12491 74.0221 20.9591 74.2165 21.5423C74.4109 21.3479 77.0087 18.8915 81.25 19.2979C95.1049 20.641 90.4748 40.4337 90.5278 40.4337C89.5735 40.4337 85.7033 40.6458 84.59 40.8402C84.5193 40.6105 86.693 20.641 78.3164 23.9457C73.6156 25.8013 74.6229 41.5471 74.6229 41.5471C73.6686 41.5471 69.233 42.4483 69.0386 42.413C68.1373 37.5709 69.0386 0.830596 69.0386 0.0353517V0Z" fill="#F1E84D"/>
<path d="M94.6096 19.8634C95.0691 19.828 101.731 19.828 101.926 19.8634C101.89 20.0578 99.9819 37.1467 106.415 37.076C112.847 37.0053 111.716 20.3228 111.716 20.1991C111.716 20.1991 117.53 20.1638 117.884 20.1991C117.919 20.3935 117.707 40.8225 117.707 41.388C116.788 41.5824 113.271 41.653 112.352 41.7414C112.246 41.5823 111.981 39.1613 111.946 39.0906C111.875 39.0906 110.355 41.2112 106.309 41.2996C105.39 41.3173 104.418 41.388 103.428 41.388C90.7571 41.388 94.6096 20.0401 94.6096 19.8457V19.8634Z" fill="#F1E84D"/>
<path d="M127.25 41.2644C126.862 41.335 122.903 41.6178 122.762 41.6178C122.762 41.3881 122.62 22.3199 122.709 21.8604C123.009 21.7897 127.357 21.6307 127.551 21.6307C127.622 21.6307 127.374 41.1583 127.268 41.2644H127.25ZM122.638 17.9549C122.603 17.7605 122.585 17.4777 122.603 17.0889C122.62 16.7002 122.638 16.2937 122.638 15.8872C122.638 15.6928 122.638 15.5161 122.603 15.3747C122.567 15.2334 122.567 15.0743 122.567 14.9153C122.567 14.8446 122.567 14.7739 122.603 14.7386C122.638 14.7032 122.638 14.6502 122.638 14.5618H126.791C126.985 14.5618 127.091 14.5618 127.144 14.5972C127.18 14.6148 127.197 14.7209 127.197 14.9153V18.6618C126.968 18.6971 126.614 18.7148 126.137 18.7148H124.67C124.176 18.7148 123.716 18.7148 123.31 18.6794C122.903 18.6617 122.709 18.6087 122.709 18.5381C122.673 18.4143 122.656 18.2376 122.656 17.9549H122.638Z" fill="#F1E84D"/>
</svg>
