<svg width="32" height="32" viewBox="0 0 32 32" fill="none" xmlns="http://www.w3.org/2000/svg">
<rect width="32" height="32" rx="16" fill="#888888" fill-opacity="0.5"/>
<mask id="mask0_182_3095" style="mask-type:alpha" maskUnits="userSpaceOnUse" x="4" y="4" width="24" height="24">
<rect x="4" y="4" width="24" height="24" fill="#D9D9D9"/>
</mask>
<g mask="url(#mask0_182_3095)">
<path d="M10 24C9.16667 24 8.45833 23.7083 7.875 23.125C7.29167 22.5417 7 21.8333 7 21C7 20.1667 7.29167 19.4583 7.875 18.875C8.45833 18.2917 9.16667 18 10 18C10.8333 18 11.5417 18.2917 12.125 18.875C12.7083 19.4583 13 20.1667 13 21C13 21.8333 12.7083 22.5417 12.125 23.125C11.5417 23.7083 10.8333 24 10 24ZM22 24C21.1667 24 20.4583 23.7083 19.875 23.125C19.2917 22.5417 19 21.8333 19 21C19 20.1667 19.2917 19.4583 19.875 18.875C20.4583 18.2917 21.1667 18 22 18C22.8333 18 23.5417 18.2917 24.125 18.875C24.7083 19.4583 25 20.1667 25 21C25 21.8333 24.7083 22.5417 24.125 23.125C23.5417 23.7083 22.8333 24 22 24ZM16 14C15.1667 14 14.4583 13.7083 13.875 13.125C13.2917 12.5417 13 11.8333 13 11C13 10.1667 13.2917 9.45833 13.875 8.875C14.4583 8.29167 15.1667 8 16 8C16.8333 8 17.5417 8.29167 18.125 8.875C18.7083 9.45833 19 10.1667 19 11C19 11.8333 18.7083 12.5417 18.125 13.125C17.5417 13.7083 16.8333 14 16 14Z" fill="white"/>
</g>
</svg>
