<svg width="32" height="32" viewBox="0 0 32 32" fill="none" xmlns="http://www.w3.org/2000/svg">
<rect width="32" height="32" rx="16" fill="#D4AF6E" fill-opacity="0.5"/>
<path d="M13 9L14.4 10.425L10.825 14L20.5 14C21.75 14 22.8125 14.4375 23.6875 15.3125C24.5625 16.1875 25 17.25 25 18.5C25 19.75 24.5625 20.8125 23.6875 21.6875C22.8125 22.5625 21.75 23 20.5 23L20 23L20 21L20.5 21C21.2 21 21.7917 20.7583 22.275 20.275C22.7583 19.7917 23 19.2 23 18.5C23 17.8 22.7583 17.2083 22.275 16.725C21.7917 16.2417 21.2 16 20.5 16L10.825 16L14.4 19.6L13 21L7 15L13 9Z" fill="white"/>
</svg>
