<svg width="78" height="78" viewBox="0 0 78 78" fill="none" xmlns="http://www.w3.org/2000/svg">
<circle cx="39.0002" cy="39.0001" r="31.6875" fill="white"/>
<path d="M43.795 34.5078V40.3477C42.2596 40.4248 40.6537 40.4671 39.0003 40.4671C37.2039 40.4671 35.4652 40.4179 33.8112 40.3257V35.6631H33.8101V34.5257C24.6342 34.9673 17.8416 36.554 17.8416 38.444C17.8416 40.6766 27.3146 42.485 39.0007 42.485C50.686 42.485 60.1598 40.6766 60.1598 38.444C60.1595 36.5261 53.1704 34.9223 43.795 34.5078Z" fill="#26A17B"/>
<path d="M39.0002 -0.00012207C17.4613 -0.00012207 0 17.4602 0 38.9997C0 60.5382 17.4613 78.0002 39.0002 78.0002C60.539 78.0002 78 60.5382 78 38.9997C78 17.4602 60.5387 -0.00012207 39.0002 -0.00012207ZM43.7942 45.6211V62.8241H33.8096V45.5977C23.1214 44.9793 15.1259 42.4932 15.1259 39.5187C15.1259 36.5449 23.1214 34.0592 33.8096 33.4398V28.6193H20.2171V18.6351H57.3881V28.6193H43.7942L43.7948 33.4167C54.6822 33.9959 62.8751 36.5085 62.8751 39.5187C62.8748 42.5297 54.6822 45.0426 43.7942 45.6211Z" fill="#26A17B"/>
</svg>
