<svg width="78" height="78" viewBox="0 0 78 78" fill="none" xmlns="http://www.w3.org/2000/svg">
<path d="M76.8339 48.4346C71.6243 69.3276 50.4596 82.0416 29.5618 76.8327C8.67369 71.6237 -4.04296 50.4614 1.16778 29.5695C6.37487 8.67408 27.5384 -4.04236 48.4301 1.16658C69.3267 6.37552 82.0422 27.5403 76.8326 48.4346H76.8339Z" fill="#0AC18E"/>
<path d="M51.5158 25.0478C49.6756 20.134 44.8671 19.6118 39.24 20.6059L37.3616 13.6087L33.1015 14.7531L34.9305 21.5658C33.812 21.8659 32.6734 22.1952 31.5424 22.5231L29.7021 15.6651L25.4453 16.8076L27.3214 23.8033C26.4043 24.0696 25.5034 24.3298 24.6205 24.5674L24.6141 24.5459L18.7392 26.1207L19.9614 30.6693C19.9614 30.6693 23.0905 29.7651 23.0538 29.8371C24.7791 29.3745 25.6105 30.2247 26.0047 31.0457L28.1448 39.0169C28.2641 38.9856 28.4207 38.9489 28.603 38.9258L28.1543 39.0465L31.1497 50.2144C31.2197 50.7777 31.133 51.729 29.9282 52.0546C29.9957 52.0883 26.8319 52.8849 26.8319 52.8849L27.3516 58.1996L32.8953 56.711C33.9271 56.4354 34.9467 56.1804 35.9436 55.9199L37.8457 62.9974L42.1004 61.856L40.2218 54.8534C41.3954 54.5645 42.5284 54.2704 43.6318 53.9731L45.5009 60.9434L49.7599 59.7997L47.8649 52.735C54.9151 50.4021 59.4436 47.2523 58.2595 40.3633C57.3085 34.8139 54.1141 33.0811 49.7868 33.195C51.9175 31.2726 52.8666 28.6427 51.5147 25.0484L51.5158 25.0478ZM49.6178 41.7799C51.0387 47.0684 41.8235 48.8981 38.936 49.6752L36.4202 40.2985C39.3077 39.5241 48.1353 36.2649 49.6189 41.7793L49.6178 41.7799ZM44.0848 29.0833C45.3751 33.8952 37.6722 35.361 35.2669 36.0072L32.9844 27.5031C35.3898 26.8569 42.7383 24.0644 44.0848 29.0833Z" fill="white"/>
</svg>
