<svg width="24" height="24" viewBox="0 0 24 24" fill="none" xmlns="http://www.w3.org/2000/svg">
<mask id="mask0_185_4560" style="mask-type:alpha" maskUnits="userSpaceOnUse" x="0" y="0" width="24" height="24">
<rect width="24" height="24" fill="#F1E84D"/>
</mask>
<g mask="url(#mask0_185_4560)">
<path d="M18 23V20H15V18H18V15H20V18H23V20H20V23H18ZM9 3V1H15V3H9ZM12 22C10.75 22 9.57917 21.7625 8.4875 21.2875C7.39583 20.8125 6.44583 20.1708 5.6375 19.3625C4.82917 18.5542 4.1875 17.6042 3.7125 16.5125C3.2375 15.4208 3 14.25 3 13C3 11.75 3.2375 10.5792 3.7125 9.4875C4.1875 8.39583 4.82917 7.44583 5.6375 6.6375C6.44583 5.82917 7.39583 5.1875 8.4875 4.7125C9.57917 4.2375 10.75 4 12 4C13.0667 4 14.075 4.175 15.025 4.525C15.975 4.875 16.8417 5.35833 17.625 5.975L19.05 4.55L20.45 5.95L19.05 7.4C19.7 8.21667 20.1958 9.125 20.5375 10.125C20.8792 11.125 21.0333 12.1917 21 13.325C20.7667 13.2583 20.5083 13.1833 20.225 13.1C19.9417 13.0167 19.5333 12.975 19 12.975C19 12.8083 18.9958 12.6458 18.9875 12.4875C18.9792 12.3292 18.9583 12.1667 18.925 12H14.9L10.4 19.825C10.6667 19.8917 10.9292 19.9375 11.1875 19.9625C11.4458 19.9875 11.7167 20 12 20C12.1833 20 12.3583 19.9958 12.525 19.9875C12.6917 19.9792 12.8667 19.9583 13.05 19.925C13.1 20.2583 13.1792 20.5917 13.2875 20.925C13.3958 21.2583 13.5333 21.5667 13.7 21.85C13.4167 21.9 13.1333 21.9375 12.85 21.9625C12.5667 21.9875 12.2833 22 12 22ZM12 11H18.7C18.4 9.96667 17.8875 9.05833 17.1625 8.275C16.4375 7.49167 15.5833 6.9 14.6 6.5L12 11ZM10.25 12L13.6 6.2C13.3333 6.13333 13.0625 6.08333 12.7875 6.05C12.5125 6.01667 12.2333 6 11.95 6C11.2 6 10.4583 6.12083 9.725 6.3625C8.99167 6.60417 8.3 6.98333 7.65 7.5L10.25 12ZM5.1 14H10.25L6.9 8.2C6.2 8.98333 5.67917 9.87083 5.3375 10.8625C4.99583 11.8542 4.91667 12.9 5.1 14ZM9.4 19.5L12 15H5.3C5.6 16.0333 6.1125 16.9417 6.8375 17.725C7.5625 18.5083 8.41667 19.1 9.4 19.5Z" fill="#F1E84D"/>
</g>
</svg>
