<svg width="24" height="24" viewBox="0 0 24 24" fill="none" xmlns="http://www.w3.org/2000/svg">
<mask id="mask0_185_4577" style="mask-type:alpha" maskUnits="userSpaceOnUse" x="0" y="0" width="24" height="24">
<rect width="24" height="24" fill="#F1E84D"/>
</mask>
<g mask="url(#mask0_185_4577)">
<path d="M9 3V1H15V3H9ZM12 22C10.75 22 9.57917 21.7625 8.4875 21.2875C7.39583 20.8125 6.44167 20.1667 5.625 19.35C4.80833 18.5333 4.16667 17.5792 3.7 16.4875C3.23333 15.3958 3 14.2333 3 13C3 11.7667 3.2375 10.6042 3.7125 9.5125C4.1875 8.42083 4.83333 7.46667 5.65 6.65C6.46667 5.83333 7.42083 5.1875 8.5125 4.7125C9.60417 4.2375 10.7667 4 12 4C13.05 4 14.05 4.175 15 4.525C15.95 4.875 16.8167 5.36667 17.6 6L19.05 4.55L20.45 5.95L19.05 7.4C19.65 8.18333 20.125 9.05 20.475 10C20.825 10.95 21 11.95 21 13C21 14.2333 20.7667 15.3958 20.3 16.4875C19.8333 17.5792 19.1917 18.5333 18.375 19.35C17.5583 20.1667 16.6042 20.8125 15.5125 21.2875C14.4208 21.7625 13.25 22 12 22ZM12 11H18.7C18.4 9.96667 17.8875 9.05833 17.1625 8.275C16.4375 7.49167 15.5833 6.9 14.6 6.5L12 11ZM10.25 12L13.6 6.2C12.6167 5.95 11.6042 5.92917 10.5625 6.1375C9.52083 6.34583 8.55 6.8 7.65 7.5L10.25 12ZM5.1 14H10.25L6.9 8.2C6.2 8.98333 5.67917 9.87083 5.3375 10.8625C4.99583 11.8542 4.91667 12.9 5.1 14ZM9.4 19.5L12 15H5.3C5.6 16.0333 6.1125 16.9417 6.8375 17.725C7.5625 18.5083 8.41667 19.1 9.4 19.5ZM10.4 19.8C11.5 20.0833 12.5667 20.0958 13.6 19.8375C14.6333 19.5792 15.55 19.1333 16.35 18.5L13.75 14L10.4 19.8ZM17.1 17.8C17.8333 17 18.3625 16.1042 18.6875 15.1125C19.0125 14.1208 19.0833 13.0833 18.9 12H13.75L17.1 17.8Z" fill="#F1E84D"/>
</g>
</svg>
