<svg width="32" height="32" viewBox="0 0 32 32" fill="none" xmlns="http://www.w3.org/2000/svg">
<rect width="32" height="32" rx="16" fill="#73D46E" fill-opacity="0.5"/>
<path d="M19 23L17.6 21.575L21.175 18H11.5C10.25 18 9.1875 17.5625 8.3125 16.6875C7.4375 15.8125 7 14.75 7 13.5C7 12.25 7.4375 11.1875 8.3125 10.3125C9.1875 9.4375 10.25 9 11.5 9H12V11H11.5C10.8 11 10.2083 11.2417 9.725 11.725C9.24167 12.2083 9 12.8 9 13.5C9 14.2 9.24167 14.7917 9.725 15.275C10.2083 15.7583 10.8 16 11.5 16H21.175L17.6 12.4L19 11L25 17L19 23Z" fill="white"/>
</svg>
