<svg width="12" height="13" viewBox="0 0 12 13" fill="none" xmlns="http://www.w3.org/2000/svg">
<mask id="mask0_146_4624" style="mask-type:alpha" maskUnits="userSpaceOnUse" x="0" y="0" width="12" height="13">
<rect y="0.5" width="12" height="12" fill="#D9D9D9"/>
</mask>
<g mask="url(#mask0_146_4624)">
<path d="M6 10.5C5.32121 10.5 4.69697 10.3455 4.12727 10.0364C3.55758 9.72727 3.09091 9.31515 2.72727 8.8V9.77273H2V7.59091H4.18182V8.31818H3.28182C3.57273 8.75455 3.95606 9.10606 4.43182 9.37273C4.90758 9.63939 5.4303 9.77273 6 9.77273C6.45455 9.77273 6.8803 9.68636 7.27727 9.51364C7.67424 9.34091 8.0197 9.10758 8.31364 8.81364C8.60758 8.5197 8.84091 8.17424 9.01364 7.77727C9.18636 7.3803 9.27273 6.95455 9.27273 6.5H10C10 7.05152 9.89545 7.5697 9.68636 8.05455C9.47727 8.53939 9.19091 8.96364 8.82727 9.32727C8.46364 9.69091 8.03939 9.97727 7.55455 10.1864C7.0697 10.3955 6.55152 10.5 6 10.5ZM2 6.5C2 5.94848 2.10455 5.4303 2.31364 4.94545C2.52273 4.46061 2.80909 4.03636 3.17273 3.67273C3.53636 3.30909 3.96061 3.02273 4.44545 2.81364C4.9303 2.60455 5.44848 2.5 6 2.5C6.67879 2.5 7.30303 2.65455 7.87273 2.96364C8.44242 3.27273 8.90909 3.68485 9.27273 4.2V3.22727H10V5.40909H7.81818V4.68182H8.71818C8.42727 4.24545 8.04394 3.89394 7.56818 3.62727C7.09242 3.36061 6.5697 3.22727 6 3.22727C5.54545 3.22727 5.1197 3.31364 4.72273 3.48636C4.32576 3.65909 3.9803 3.89242 3.68636 4.18636C3.39242 4.4803 3.15909 4.82576 2.98636 5.22273C2.81364 5.6197 2.72727 6.04545 2.72727 6.5H2Z" fill="#F1E84D"/>
</g>
</svg>
