<svg width="24" height="24" viewBox="0 0 24 24" fill="none" xmlns="http://www.w3.org/2000/svg">
<mask id="mask0_182_4197" style="mask-type:alpha" maskUnits="userSpaceOnUse" x="0" y="0" width="24" height="24">
<rect width="24" height="24" fill="#DCD449"/>
</mask>
<g mask="url(#mask0_182_4197)">
<path fill-rule="evenodd" clip-rule="evenodd" d="M2.75 16.25C3.91667 17.4167 5.33333 18 7 18H17C18.6667 18 20.0833 17.4167 21.25 16.25C22.4167 15.0833 23 13.6667 23 12C23 10.3333 22.4167 8.91667 21.25 7.75C20.0833 6.58333 18.6667 6 17 6H7C5.33333 6 3.91667 6.58333 2.75 7.75C1.58333 8.91667 1 10.3333 1 12C1 13.6667 1.58333 15.0833 2.75 16.25ZM16.875 15C17.7083 15 18.4167 14.7083 19 14.125C19.5833 13.5417 19.875 12.8333 19.875 12C19.875 11.1667 19.5833 10.4583 19 9.875C18.4167 9.29167 17.7083 9 16.875 9C16.0417 9 15.3333 9.29167 14.75 9.875C14.1667 10.4583 13.875 11.1667 13.875 12C13.875 12.8333 14.1667 13.5417 14.75 14.125C15.3333 14.7083 16.0417 15 16.875 15Z" fill="#DCD449"/>
</g>
</svg>
